# xmcd
#
# Track frame offsets: 
#        150
#        13005
#        53818
#        57190
#        60907
#        62825
#        69017
#        80348
#        94312
#        109676
#        128342
#        128792
#        132973
#        135868
#        145757
#        150304
#        164069
#        177790
#        183718
#        192566
#        193316
#        196540
#        199493
#        212629
#        246217
#        263075
#        269367
#        282466
#
# Disc length: 4763 seconds
#
# Revision: 0
# Processed by: cddbd v1.5.2PL0 Copyright (c) Steve Scherf et al.
# Submitted via: ExactAudioCopy v0.95b3
#
DISCID=9812991c
DTITLE=The Beatles  - AB  Road - Complete Purple Chick Set v1.1 Jan.24
DTITLE=Various Artist - D1  FLAC
DYEAR=1900
DGENRE=
TTITLE0=Get Back 24.01
TTITLE1=Get Back 24.02
TTITLE2=Dialogue
TTITLE3=Get Back 24.03
TTITLE4=Get Back 24.04
TTITLE5=(I Can't Get No) Satisfaction 24.05
TTITLE6=Get Back 24.06
TTITLE7=What'd I Say 24.07
TTITLE8=Bass riff-Get Back-Improvisation 24.08
TTITLE9=Improvisation 24.09
TTITLE10=Improvisation 24.10
TTITLE11=Get Back-improvisation 24.11
TTITLE12=Improvisation 24.12
TTITLE13=Don't Let Me Down 24.13
TTITLE14=Ob-La-Di, Ob-La-Da 24.14
TTITLE15=Get Back 24.15
TTITLE16=Get Back 24.16
TTITLE17=Soldier Of Love (Lay Down Your Arms) 24.1
TTITLE18=Cathy's Clown-Soldier Of Love-Where Have 24.18
TTITLE19=Love Is A Swingin' Thing 24.19
TTITLE20=What'd I Say-Love Is A Swingin Thing 24.20
TTITLE21=She Said Yeah 24.21
TTITLE22=Child Of Nature 24.22
TTITLE23=Two Of Us 24.23
TTITLE24=Two Of Us 24.24
TTITLE25=You're So Good to Me 24.25
TTITLE26=Two Of Us 24.26
TTITLE27=Two Of Us 24.27a
EXTD=
EXTT0=
EXTT1=
EXTT2=
EXTT3=
EXTT4=
EXTT5=
EXTT6=
EXTT7=
EXTT8=
EXTT9=
EXTT10=
EXTT11=
EXTT12=
EXTT13=
EXTT14=
EXTT15=
EXTT16=
EXTT17=
EXTT18=
EXTT19=
EXTT20=
EXTT21=
EXTT22=
EXTT23=
EXTT24=
EXTT25=
EXTT26=
EXTT27=
PLAYORDER=
